<svg id="Layer_1" data-name="Layer 1" xmlns="http://www.w3.org/2000/svg" width="460" height="290" viewBox="0 0 460 290">
  <title>waits_blue</title>
  <g>
    <path d="M240.4618,146.5361a1.0456,1.0456,0,0,0,.8536,1.0231A56.954,56.954,0,0,1,287.5,203.4484v60.4285a2.3783,2.3783,0,0,1-.0176.2923c-.7833,6.1618-25.9919,11.1077-56.9824,11.1077s-56.1991-4.9459-56.9824-11.1077a2.3783,2.3783,0,0,1-.0176-.2923V203.3053a56.5958,56.5958,0,0,1,45.1615-55.4912,1.0342,1.0342,0,0,0,.8385-1.0132v-.2445a1.0343,1.0343,0,0,0-.8385-1.0132A56.5957,56.5957,0,0,1,173.5,90.0521V26.1231a2.5837,2.5837,0,0,1,.1637-.8769c2.2391-5.8871,26.828-10.5231,56.8363-10.5231s54.5972,4.636,56.8363,10.5231a2.5813,2.5813,0,0,1,.1637.8769V89.6238a56.954,56.954,0,0,1-46.1846,55.8892A1.0456,1.0456,0,0,0,240.4618,146.5361Z" fill="#fff" stroke="#25282d" stroke-miterlimit="10" stroke-width="5"/>
    <path d="M173.2845,25.5007a2.578,2.578,0,0,0-.1634.8751" fill="#fff" stroke="#25282d" stroke-miterlimit="10" stroke-width="5"/>
    <path d="M286.8789,26.3758a2.578,2.578,0,0,0-.1634-.8751" fill="#fff" stroke="#25282d" stroke-miterlimit="10" stroke-width="5"/>
    <path d="M184.1387,252.9409l40.6883-29.8254a12.3014,12.3014,0,0,1,9.7627,0l40.6882,29.8254c2.545,1.1632,2.21,3.7694-.6124,4.5946a157.0346,157.0346,0,0,1-89.9144,0C181.9291,256.71,181.5937,254.1041,184.1387,252.9409Z" fill="#2bd3ef"/>
    <path d="M277.2532,92.8625c0,23.3583-21.2873,42.2946-47.5449,42.2946s-47.5449-18.9363-47.5449-42.2946a37.9542,37.9542,0,0,1,.9829-8.6,5.6616,5.6616,0,0,1,6.8576-4.1812c19.41,4.6941,33.5452,2.7225,43.5489-.6246,3.71-1.2426,7.8405-3.01,12.2508-4.7136,6.3038-2.4269,13.1768-4.719,20.21-5.1437a5.7414,5.7414,0,0,1,5.2209,2.6552q.5958.9465,1.1356,1.9226A38.3289,38.3289,0,0,1,277.2532,92.8625Z" fill="#2bd3ef"/>
    <g>
      <line x1="230.5" y1="124.5" x2="230.5" y2="125" fill="none" stroke="#2bd3ef" stroke-linecap="round" stroke-miterlimit="10" stroke-width="5"/>
      <line x1="230.5" y1="135.8151" x2="230.5" y2="236.5924" fill="none" stroke="#2bd3ef" stroke-linecap="round" stroke-miterlimit="10" stroke-width="5" stroke-dasharray="0.9832 10.8151"/>
      <line x1="230.5" y1="242" x2="230.5" y2="242.5" fill="none" stroke="#2bd3ef" stroke-linecap="round" stroke-miterlimit="10" stroke-width="5"/>
    </g>
  </g>
</svg>
